name Walk4.mot
datacolumns 19
datarows 25
range 1.21100000 1.23500000
endheader

                time	   L_ground_force_vx	   L_ground_force_vy	   L_ground_force_vz	   L_ground_force_px	   L_ground_force_py	   L_ground_force_pz	   R_ground_force_vx	   R_ground_force_vy	   R_ground_force_vz	   R_ground_force_px	   R_ground_force_py	   R_ground_force_pz	   L_ground_torque_x	   L_ground_torque_y	   L_ground_torque_z	   R_ground_torque_x	   R_ground_torque_y	   R_ground_torque_z	
          1.21100000	         -7.52646776	         66.63602212	         -5.06879391	         -0.15947505	          0.00000000	         -0.01127043	         -0.00000000	          0.00000000	         -0.00000000	          0.00000000	          0.00000000	          0.00000000	          0.00000000	          0.08102026	          0.00000000	          0.00000000	          0.00000000	          0.00000000	
          1.21200000	         -8.14714317	         71.84874939	         -5.38818269	         -0.16866855	          0.00000000	         -0.01192980	         -0.00000000	          0.00000000	         -0.00000000	          0.00000000	          0.00000000	          0.00000000	          0.00000000	          0.08850855	          0.00000000	          0.00000000	          0.00000000	          0.00000000	
          1.21300000	         -8.79184791	         77.24914071	         -5.71499797	         -0.17801978	          0.00000000	         -0.01260117	         -0.00000000	          0.00000000	         -0.00000000	          0.00000000	          0.00000000	          0.00000000	          0.00000000	          0.09632716	          0.00000000	          0.00000000	          0.00000000	          0.00000000	
          1.21400000	         -9.46015231	         82.83233164	         -6.04858015	         -0.18750476	          0.00000000	         -0.01328289	         -0.00000000	          0.00000000	         -0.00000000	          0.00000000	          0.00000000	          0.00000000	          0.00000000	          0.10447449	          0.00000000	          0.00000000	          0.00000000	          0.00000000	
          1.21500000	        -10.15148936	         88.59225078	         -6.38818038	         -0.19709676	          0.00000000	         -0.01397310	         -0.00000000	          0.00000000	         -0.00000000	          0.00000000	          0.00000000	          0.00000000	          0.00000000	          0.11294744	          0.00000000	          0.00000000	          0.00000000	          0.00000000	
          1.21600000	        -10.86514420	         94.52153266	         -6.73295537	         -0.20676610	          0.00000000	         -0.01466974	         -0.00000000	          0.00000000	         -0.00000000	          0.00000000	          0.00000000	          0.00000000	          0.00000000	          0.12174128	          0.00000000	          0.00000000	          0.00000000	          0.00000000	
          1.21700000	        -11.60024338	        100.61142791	         -7.08196209	         -0.21648005	          0.00000000	         -0.01537053	         -0.00000000	          0.00000000	         -0.00000000	          0.00000000	          0.00000000	          0.00000000	          0.00000000	          0.13084951	          0.00000000	          0.00000000	          0.00000000	          0.00000000	
          1.21800000	        -12.35574932	        106.85172517	         -7.43415260	         -0.22620304	          0.00000000	         -0.01607301	         -0.00000000	          0.00000000	         -0.00000000	          0.00000000	          0.00000000	          0.00000000	          0.00000000	          0.14026369	          0.00000000	          0.00000000	          0.00000000	          0.00000000	
          1.21900000	        -13.13047421	        113.23072488	         -7.78836943	         -0.23589831	          0.00000000	         -0.01677468	         -0.00000000	          0.00000000	         -0.00000000	          0.00000000	          0.00000000	          0.00000000	          0.00000000	          0.14997319	          0.00000000	          0.00000000	          0.00000000	          0.00000000	
          1.22000000	        -13.92311721	        119.73528881	         -8.14334192	         -0.24553028	          0.00000000	         -0.01747325	         -0.00000000	          0.00000000	         -0.00000000	          0.00000000	          0.00000000	          0.00000000	          0.00000000	          0.15996496	          0.00000000	          0.00000000	          0.00000000	          0.00000000	
          1.22100000	        -14.73230983	        126.35094775	         -8.49768316	         -0.25506616	          0.00000000	         -0.01816678	         -0.00000000	          0.00000000	         -0.00000000	          0.00000000	          0.00000000	         -0.00000000	          0.00000000	          0.17022347	          0.00000000	          0.00000000	          0.00000000	          0.00000000	
          1.22200000	        -15.55665946	        133.06205840	         -8.84988747	         -0.26447627	          0.00000000	         -0.01885362	         -0.00000000	          0.00000000	         -0.00000000	         -0.00000000	          0.00000000	         -0.00000000	          0.00000000	          0.18073106	          0.00000000	          0.00000000	          0.00000000	          0.00000000	
          1.22300000	        -16.39479316	        139.85202716	         -9.19832909	         -0.27373388	          0.00000000	         -0.01953240	         -0.00000000	          0.00000000	         -0.00000000	         -0.00000000	          0.00000000	         -0.00000000	          0.00000000	          0.19146853	          0.00000000	          0.00000000	          0.00000000	          0.00000000	
          1.22400000	        -17.24540173	        146.70361138	         -9.54126246	         -0.28281508	          0.00000000	         -0.02020200	         -0.00000000	          0.00000000	         -0.00000000	         -0.00000000	          0.00000000	         -0.00000000	          0.00000000	          0.20241585	          0.00000000	          0.00000000	          0.00000000	          0.00000000	
          1.22500000	        -18.10727975	        153.59928930	         -9.87682526	         -0.29169865	          0.00000000	         -0.02086147	         -0.00000000	          0.00000000	         -0.00000000	         -0.00000000	          0.00000000	         -0.00000000	          0.00000000	          0.21355310	          0.00000000	          0.00000000	          0.00000000	          0.00000000	
          1.22600000	        -18.97935646	        160.52167334	        -10.20304516	         -0.30036586	          0.00000000	         -0.02151005	         -0.00000000	          0.00000000	         -0.00000000	         -0.00000000	          0.00000000	         -0.00000000	          0.00000000	          0.22486121	          0.00000000	          0.00000000	          0.00000000	          0.00000000	
          1.22700000	        -19.86071309	        167.45392726	        -10.51785175	         -0.30880038	          0.00000000	         -0.02214713	         -0.00000000	         -0.00000000	         -0.00000000	         -0.00000000	          0.00000000	         -0.00000000	          0.00000000	          0.23632260	          0.00000000	          0.00000000	          0.00000000	          0.00000000	
          1.22800000	        -20.75058499	        174.38014311	        -10.81909445	         -0.31698812	          0.00000000	         -0.02277223	         -0.00000000	         -0.00000000	         -0.00000000	         -0.00000000	          0.00000000	         -0.00000000	          0.00000000	          0.24792147	          0.00000000	          0.00000000	          0.00000000	          0.00000000	
          1.22900000	        -21.64834963	        181.28563942	        -11.10456657	         -0.32491706	          0.00000000	         -0.02338500	         -0.00000000	         -0.00000000	         -0.00000000	         -0.00000000	          0.00000000	         -0.00000000	          0.00000000	          0.25964390	          0.00000000	          0.00000000	          0.00000000	          0.00000000	
          1.23000000	        -22.55350405	        188.15715684	        -11.37203451	         -0.33257718	          0.00000000	         -0.02398520	         -0.00000000	         -0.00000000	         -0.00000000	         -0.00000000	          0.00000000	         -0.00000000	          0.00000000	          0.27147767	          0.00000000	          0.00000000	          0.00000000	          0.00000000	
          1.23100000	        -23.46563644	        194.98294438	        -11.61927017	         -0.33996031	          0.00000000	         -0.02457270	         -0.00000000	         -0.00000000	         -0.00000000	         -0.00000000	          0.00000000	         -0.00000000	          0.00000000	          0.28341186	          0.00000000	          0.00000000	          0.00000000	          0.00000000	
          1.23200000	        -24.38439615	        201.75274556	        -11.84408443	         -0.34706000	          0.00000000	         -0.02514742	         -0.00000000	         -0.00000000	         -0.00000000	         -0.00000000	          0.00000000	         -0.00000000	          0.00000000	          0.29543639	          0.00000000	          0.00000000	          0.00000000	          0.00000000	
          1.23300000	        -25.30946540	        208.45770458	        -12.04435931	         -0.35387140	          0.00000000	         -0.02570942	         -0.00000000	         -0.00000000	         -0.00000000	         -0.00000000	          0.00000000	         -0.00000000	          0.00000000	          0.30754142	          0.00000000	          0.00000000	          0.00000000	          0.00000000	
          1.23400000	        -26.24053463	        215.09021860	        -12.21807682	         -0.36039118	          0.00000000	         -0.02625878	         -0.00000000	         -0.00000000	         -0.00000000	         -0.00000000	          0.00000000	         -0.00000000	          0.00000000	          0.31971686	          0.00000000	          0.00000000	          0.00000000	          0.00000000	
          1.23500000	        -27.17728200	        221.64376186	        -12.36334308	         -0.36661736	          0.00000000	         -0.02679565	         -0.00000000	         -0.00000001	         -0.00000000	         -0.00000000	          0.00000000	         -0.00000000	          0.00000000	          0.33195197	          0.00000000	          0.00000000	         -0.00000000	          0.00000000	
